<svg width="180" height="180" viewBox="0 0 180 180" fill="none" xmlns="http://www.w3.org/2000/svg">
  <rect width="180" height="180" rx="36" fill="hsl(213, 56%, 22%)"/>
  <path d="M90 130 C50 100, 25 75, 25 55 C25 38, 38 25, 55 25 C67 25, 78 32, 90 45 C102 32, 113 25, 125 25 C142 25, 155 38, 155 55 C155 75, 130 100, 90 130Z" fill="white"/>
  <polyline points="40,80 60,80 68,60 76,100 84,70 92,80 112,80 120,80 128,55 136,95 144,75 152,80" stroke="hsl(207, 89%, 53%)" stroke-width="5" stroke-linecap="round" stroke-linejoin="round" fill="none"/>
</svg>
