<svg width="180" height="180" viewBox="0 0 180 180" fill="none" xmlns="http://www.w3.org/2000/svg">
  <rect width="180" height="180" rx="36" fill="hsl(213, 56%, 22%)"/>
  <g transform="translate(36, 36) scale(5)">
    <path d="M2 9.5a5.5 5.5 0 0 1 9.591-3.676.56.56 0 0 0 .818 0A5.49 5.49 0 0 1 22 9.5c0 2.29-1.5 4-3 5.5l-5.492 5.313a2 2 0 0 1-3 .019L5 15c-1.5-1.5-3-3.2-3-5.5" fill="white"/>
    <path d="M3.22 13H9.5l.5-1 2 4.5 2-7 1.5 3.5h5.27" stroke="hsl(213, 56%, 22%)" stroke-width="1.2" stroke-linecap="round" stroke-linejoin="round" fill="none"/>
  </g>
</svg>
